<svg width="17" height="16" viewBox="0 0 17 16" fill="none" xmlns="http://www.w3.org/2000/svg">
<mask id="path-1-inside-1_1710_2263" fill="white">
<path d="M5 0H16.2V16H5V0Z"/>
</mask>
<path d="M16.2 0H17.2V-1H16.2V0ZM16.2 16V17H17.2V16H16.2ZM5 1H16.2V-1H5V1ZM15.2 0V16H17.2V0H15.2ZM16.2 15H5V17H16.2V15Z" fill="#FF0000" mask="url(#path-1-inside-1_1710_2263)"/>
<path d="M11.3536 8.35355C11.5488 8.15829 11.5488 7.84171 11.3536 7.64645L8.17157 4.46447C7.97631 4.2692 7.65973 4.2692 7.46447 4.46447C7.2692 4.65973 7.2692 4.97631 7.46447 5.17157L10.2929 8L7.46447 10.8284C7.2692 11.0237 7.2692 11.3403 7.46447 11.5355C7.65973 11.7308 7.97631 11.7308 8.17157 11.5355L11.3536 8.35355ZM0 8.5L11 8.5V7.5L0 7.5L0 8.5Z" fill="#FF0000"/>
</svg>
